<svg xmlns="http://www.w3.org/2000/svg" viewBox="0 0 159 22">
  <path d="M23 21.39h15.14v-4H27.58v-4.9h8.76V8.5h-8.76V4H38.2V0H23zm33.75-7.93L46.83 0H40l2.13 2.7v18.76h4.57V7.4l10.24 13.98h4.39V0h-4.58zm-40.96-3.08c2-.38 3.68-2.25 3.68-4.89C19.46 2.64 17.4 0 13.27 0H0l2.06 2.64V21.4h11.67c4.13 0 6.25-2.58 6.25-5.8-.07-2.65-1.9-4.9-4.2-5.21zM6.64 4.02h5.73c1.55 0 2.51.9 2.51 2.25s-.96 2.26-2.5 2.26H6.63V4.02zm5.92 13.4H6.64V12.5h5.92c1.74 0 2.7 1.1 2.7 2.45 0 1.54-1.02 2.45-2.7 2.45v.02zm115.58-3.96h2.39v2.52a7 7 0 01-4.39 1.6c-3.8 0-6.5-2.9-6.5-6.82 0-3.93 2.7-6.83 6.5-6.83a5.87 5.87 0 014.9 2.7l3.61-2A9.71 9.71 0 00126.08 0C120.03 0 115 4.19 115 10.7c0 6.5 4.96 10.69 11.08 10.69 3.35.05 6.55-1.36 8.76-3.87V9.6h-9.79l3.1 3.86zm-20.39 0L97.83 0H91l2.13 2.7v18.76h4.57V7.4l10.25 13.98h4.38V0h-4.58zM149.91 0h-8.82l2.13 2.7-.39 1.03L136 21.46h5.16l1.34-3.62h9.23l1.34 3.62h5.15L149.92 0zm-6.24 13.79l3.35-9.22 3.35 9.22h-6.7zM83 0h4.58v21.46H83zm-2.89 3.67V0H64v4h10.12L64 17.71v3.67h16.3v-4H69.93z" fill="#FFF" fill-rule="nonzero"/>
</svg>
