<svg xmlns="http://www.w3.org/2000/svg" xmlns:xlink="http://www.w3.org/1999/xlink" viewBox="0 0 66 51">
  <defs>
    <path id="a" d="M0 .16h16.24V11.2H0z"/>
    <path id="c" d="M.43.16h16.24V11.2H.43z"/>
    <path id="e" d="M.35.07H12.7v27.89H.35z"/>
  </defs>
  <g fill="none" fill-rule="evenodd">
    <g transform="translate(0 37.3)">
      <mask id="b" fill="#fff">
        <use xlink:href="#a"/>
      </mask>
      <path fill="#FFF" fill-rule="nonzero" d="M11.35 3.85c-.24-1.17-1.19-1.48-2.25-1.58-3.44-.32-4.05 2.27-4.05 3.36 0 1.87.55 3.41 3.92 3.41.62 0 2.34-.64 2.34-1.69h4.85c-.2 3.11-5.39 3.86-7.65 3.86-4.68 0-8.7-.88-8.5-5.54C.14 2.36 3.26.02 9.46.17c3.45.08 6.76 1.16 6.78 3.68h-4.9z" mask="url(#b)"/>
    </g>
    <g transform="translate(48.16 37.3)">
      <mask id="d" fill="#fff">
        <use xlink:href="#c"/>
      </mask>
      <path fill="#FFF" fill-rule="nonzero" d="M11.78 3.85c-.24-1.17-1.2-1.48-2.25-1.58-3.44-.32-4.04 2.27-4.04 3.36 0 1.87.53 3.41 3.9 3.41.63 0 2.35-.64 2.35-1.69h4.85c-.2 3.11-5.39 3.86-7.65 3.86-4.69 0-8.7-.88-8.5-5.54C.56 2.36 3.68.02 9.88.17c3.44.08 6.76 1.16 6.78 3.68h-4.89z" mask="url(#d)"/>
    </g>
    <path fill="#FFF" fill-rule="nonzero" d="M17.1 37.68h6.3l5.38 7.6h.04v-7.6h4.04v10.54h-6.04l-5.64-7.59h-.04v7.6h-4.03zm21.43 8.34h1.26c2.36 0 3.23-.26 3.23-1.07 0-.88-1.1-1.17-2.85-1.17h-1.64v2.24zm0-4.25h1.26c1.96 0 3-.15 3-.97 0-.87-.86-1.16-2.62-1.16h-1.64v2.14zm-4.43-4.09h7.65c3.67 0 5.84 1.04 5.84 2.6 0 .92-.9 2.06-2.93 2.4v.03c2.43.14 3.33 1.69 3.33 2.62 0 1.86-2.1 2.9-6.22 2.9H34.1V37.67z"/>
    <g transform="translate(32.88 .4)">
      <mask id="f" fill="#fff">
        <use xlink:href="#e"/>
      </mask>
      <path fill="#FFF" fill-rule="nonzero" d="M12.21 3.81a6.23 6.23 0 00-8.64-3A6.1 6.1 0 00.35 6.2l.08.08 2.64.03c.17.12.45.1.5.36C2.5 7.5.67 8.24.9 9.96l2.83 18 .07-.09 7.81-17.73c1.01-1.77 1.59-4.36.61-6.33" mask="url(#f)"/>
    </g>
    <path fill="#FFF" fill-rule="nonzero" d="M28.29 28.25l3.18-20.61a6.38 6.38 0 00-.78-4.04A6.62 6.62 0 0027.7 1a6.14 6.14 0 00-6.66 1.26 6.27 6.27 0 00-1.62 6.4l8 17.99.81 1.66c.03-.01.06-.04.05-.06m28.36-15.98a6.37 6.37 0 01-.36 6.36c-.74 1.2-1.96 1.8-3 2.6L36.74 32.69h-.04l.19-.55 8.77-19.98a6.3 6.3 0 016.48-3.18 6.4 6.4 0 014.51 3.3M9.63 19.88l18.4 12.8h.15l-9.13-20.52a6.28 6.28 0 00-7.7-2.83 6.38 6.38 0 00-3.73 4.16 6.16 6.16 0 002 6.4M60.7 33.04a6.38 6.38 0 00.75-6.3 6.31 6.31 0 00-9.03-2.82L36 35.47l19.63-.01a6.2 6.2 0 005.08-2.4m-31.9 2.41L12.36 23.93a6.32 6.32 0 00-9.03 2.82 6.4 6.4 0 00.76 6.3 6.2 6.2 0 005.08 2.41l19.63.01z"/>
  </g>
</svg>
