<svg xmlns="http://www.w3.org/2000/svg" viewBox="0 0 206 23">
  <path d="M10.12 22.64c1.34 0 2.43-.2 3.28-.6.85-.4 1.66-.86 2.41-1.4.46-.28.78-.31.97-.09.2.23.34.78.42 1.66h.7c-.03-.8-.07-1.78-.09-2.93a244 244 0 01-.03-3.88v-.7h-.7a20.28 20.28 0 01-.54 3.16 4.99 4.99 0 01-1.19 2.08 4.72 4.72 0 01-2.15 1.55c-.9.34-1.78.5-2.62.5a5.27 5.27 0 01-2.78-.75 6.45 6.45 0 01-2.12-2.15 11.06 11.06 0 01-1.34-3.35c-.3-1.3-.46-2.76-.46-4.36 0-1.56.14-3 .43-4.3.28-1.32.7-2.46 1.24-3.42a6.27 6.27 0 012.02-2.23c.8-.52 1.72-.78 2.77-.78.96 0 1.87.16 2.74.49a5.1 5.1 0 012.18 1.6 5.43 5.43 0 011.4 2.67c.13.58.27 1.32.42 2.22h.7v-.67c0-1.52.02-2.75.03-3.71.02-1.1.06-2.04.1-2.82h-.71c-.08.88-.23 1.44-.45 1.68-.21.23-.53.2-.94-.11-.67-.53-1.45-1-2.32-1.4-.87-.4-1.98-.6-3.34-.6A9.6 9.6 0 004.9 1.45a10 10 0 00-3.58 4.03A13.2 13.2 0 000 11.5c0 2.34.42 4.33 1.26 6a8.98 8.98 0 003.54 3.81 10.4 10.4 0 005.32 1.32zm21.36 0a9.7 9.7 0 005.26-1.44 9.8 9.8 0 003.6-4.03c.86-1.73 1.29-3.74 1.29-6.03 0-2.36-.42-4.37-1.26-6.02a8.97 8.97 0 00-3.56-3.8A10.43 10.43 0 0031.51 0a9.6 9.6 0 00-5.27 1.45 10 10 0 00-3.58 4.03 13.2 13.2 0 00-1.3 6.03c0 2.34.41 4.33 1.25 6a8.98 8.98 0 003.54 3.81 10.4 10.4 0 005.33 1.32zm.12-.55c-1.21 0-2.3-.44-3.3-1.3a8.8 8.8 0 01-2.33-3.73c-.58-1.6-.86-3.5-.86-5.68 0-2.13.25-4 .77-5.63s1.24-2.89 2.18-3.81A4.6 4.6 0 0131.38.55c1.21 0 2.3.44 3.28 1.31.97.87 1.75 2.1 2.34 3.7.58 1.6.87 3.5.87 5.7 0 2.11-.26 3.98-.78 5.62a9.26 9.26 0 01-2.18 3.83 4.54 4.54 0 01-3.31 1.38zm20.89.12v-.61a5.97 5.97 0 01-1.54-.25c-.35-.12-.58-.37-.7-.74s-.2-.92-.2-1.66V3.7c0-.76.07-1.32.2-1.68s.35-.6.7-.73c.35-.14.86-.21 1.54-.23V.43a154.78 154.78 0 01-4.15.1 90.8 90.8 0 01-4.25-.1v.62c.68.02 1.2.1 1.55.23.36.13.6.38.71.74.11.35.17.91.17 1.67v15.26c0 .74-.06 1.3-.17 1.66-.11.37-.34.62-.69.74-.35.13-.87.2-1.57.25v.61c.47-.04 1.08-.06 1.83-.07a181.56 181.56 0 014.7 0c.76 0 1.38.03 1.87.07zm19.63.13V4.37c0-.84.06-1.5.17-1.96.11-.46.34-.79.7-1 .34-.2.86-.32 1.56-.36V.43a67.1 67.1 0 01-2.8.1 53.2 53.2 0 01-3.2-.1v.62c.82.04 1.44.17 1.85.38.4.22.68.56.81 1.03.14.47.2 1.15.2 2.03v12L60.18.43a96.6 96.6 0 01-2.46.1 39.5 39.5 0 01-2.8-.1v.62c.68.02 1.2.1 1.54.23.35.13.58.38.7.74.13.35.2.91.2 1.67v14.59c0 .82-.07 1.46-.2 1.93-.12.48-.35.81-.7 1-.35.2-.86.33-1.54.39v.61c.33-.04.75-.06 1.26-.07a78.96 78.96 0 013.25 0c.6 0 1.1.03 1.49.07v-.61a5.24 5.24 0 01-1.88-.4 1.5 1.5 0 01-.8-1.03 8.57 8.57 0 01-.18-2.02V3.38L71.1 22.34h1.02zm20.55-.13v-.61a5.99 5.99 0 01-1.54-.25c-.34-.12-.58-.37-.7-.74s-.19-.92-.19-1.66V3.7c0-.76.06-1.32.19-1.68s.36-.6.7-.73c.35-.14.87-.21 1.54-.23V.43a154.35 154.35 0 01-4.15.1 90.8 90.8 0 01-4.25-.1v.62c.68.02 1.2.1 1.56.23.36.13.6.38.7.74.12.35.17.91.17 1.67v15.26c0 .74-.05 1.3-.17 1.66-.1.37-.34.62-.69.74-.35.13-.87.2-1.57.25v.61c.47-.04 1.08-.06 1.83-.07a181.82 181.82 0 014.71 0c.75 0 1.37.03 1.86.07zm19.63.13V4.37c0-.84.06-1.5.17-1.96.11-.46.35-.79.7-1 .34-.2.87-.32 1.56-.36V.43a67.1 67.1 0 01-2.8.1 53.2 53.2 0 01-3.2-.1v.62c.82.04 1.44.17 1.85.38.41.22.68.56.81 1.03.14.47.2 1.15.2 2.03v12L100.36.43a95.73 95.73 0 01-2.46.1 39.49 39.49 0 01-2.8-.1v.62c.68.02 1.2.1 1.54.23.35.13.59.38.71.74.12.35.18.91.18 1.67v14.59c0 .82-.06 1.46-.18 1.93-.12.48-.36.81-.7 1-.36.2-.87.33-1.55.39v.61c.33-.04.75-.06 1.26-.07a78.94 78.94 0 013.25 0c.6 0 1.1.03 1.5.07v-.61a5.25 5.25 0 01-1.88-.4 1.5 1.5 0 01-.8-1.03 8.57 8.57 0 01-.19-2.02V3.38l13.05 18.96h1.01zm12.19.3c1.25 0 2.4-.21 3.44-.64a5.66 5.66 0 002.51-1.96c.63-.87.94-1.97.94-3.3 0-1.11-.24-2.05-.7-2.83a8.06 8.06 0 00-1.95-2.14c-.82-.65-1.74-1.3-2.77-1.96-1-.63-1.9-1.21-2.69-1.73a7.36 7.36 0 01-1.86-1.7 3.68 3.68 0 01-.68-2.26 3.2 3.2 0 011.03-2.47 3.72 3.72 0 012.6-.94c1.13 0 2.06.3 2.79.89.73.6 1.28 1.36 1.66 2.3.38.95.6 1.92.66 2.93h.7v-.6l.02-2.63c.01-.82.03-1.48.07-1.99l.07-1.3h-.7c-.13.9-.35 1.35-.68 1.35-.15 0-.3-.03-.45-.1a8.06 8.06 0 01-.6-.33 9.32 9.32 0 00-1.5-.8 6.57 6.57 0 00-2.5-.37 7.7 7.7 0 00-3 .59c-.93.39-1.69.98-2.27 1.78-.59.8-.88 1.83-.88 3.08 0 1.13.25 2.1.75 2.92.5.82 1.18 1.54 2.02 2.15a51.2 51.2 0 002.7 1.85c1.42.86 2.56 1.7 3.44 2.54.87.83 1.3 1.87 1.3 3.12 0 1.33-.4 2.31-1.2 2.94-.8.62-1.7.94-2.74.94a4.72 4.72 0 01-3.15-1 5.88 5.88 0 01-1.75-2.66c-.38-1.11-.61-2.3-.7-3.57h-.7a378.89 378.89 0 01-.05 6.1c0 .61-.03 1.14-.08 1.59h.71c.13-.9.35-1.35.68-1.35.25 0 .6.14 1.05.43a8.23 8.23 0 004.46 1.14zm17.93-.43v-.61c-.67-.04-1.19-.12-1.53-.25s-.59-.37-.71-.74a5.6 5.6 0 01-.19-1.66V3.7c0-.76.06-1.32.19-1.68.12-.35.36-.6.7-.73.36-.14.87-.21 1.55-.23V.43a155.05 155.05 0 01-4.16.1 90.69 90.69 0 01-4.25-.1v.62c.68.02 1.2.1 1.56.23.36.13.6.38.7.74.12.35.18.91.18 1.67v15.26c0 .74-.06 1.3-.17 1.66-.12.37-.35.62-.7.74-.35.13-.87.2-1.57.25v.61c.48-.04 1.09-.06 1.84-.07a181.34 181.34 0 014.7 0c.75 0 1.37.03 1.86.07zm10.9 0c2.44 0 4.51-.46 6.23-1.38a9.44 9.44 0 003.92-3.9c.9-1.66 1.35-3.62 1.35-5.85 0-3.43-.92-6.06-2.77-7.9-1.84-1.83-4.66-2.75-8.46-2.75l-2.23.03-2.47.06c-.74.02-1.49.02-2.23-.01l-1.84-.08v.62c.68.02 1.2.1 1.56.23.36.13.6.38.7.74.12.35.18.91.18 1.67v15.26c0 .74-.06 1.3-.17 1.66-.12.37-.35.62-.7.74-.35.13-.87.2-1.57.25v.61c.48-.04 1.09-.06 1.83-.07l2.3-.02c.67 0 1.46.02 2.35.05.9.03 1.56.04 2.02.04zm-.22-.55c-.94 0-1.56-.17-1.86-.52-.3-.35-.45-1.06-.45-2.13V3.63c0-1.07.15-1.77.43-2.12.3-.35.9-.53 1.85-.53 2.95 0 5.03.84 6.21 2.53 1.2 1.68 1.79 4.24 1.79 7.69 0 2.23-.24 4.13-.7 5.7a6.47 6.47 0 01-2.44 3.54c-1.15.81-2.76 1.22-4.83 1.22zm20.21-10.7v-7.4c0-.7.07-1.24.19-1.58.12-.33.35-.56.7-.67.33-.12.83-.17 1.48-.17h2.13c1.04 0 1.86.16 2.44.47.59.32 1.03.86 1.33 1.62.3.76.51 1.8.66 3.1h.7a31.34 31.34 0 01-.09-1.96 42.2 42.2 0 01.22-3.94c-.95.04-2.02.07-3.22.08l-3.21.01h-2.54a203.69 203.69 0 01-6.75-.09v.62c.67.02 1.2.1 1.55.23.36.13.6.38.7.74.12.35.18.91.18 1.67v15.26c0 .74-.06 1.3-.17 1.66-.12.37-.35.62-.7.74-.34.13-.87.2-1.56.25v.61c1.04-.04 2.17-.06 3.37-.07l3.38-.02h2.54c1.02 0 2.2 0 3.5.02 1.32 0 2.5.03 3.54.07a40.15 40.15 0 01-.12-6.52h-.7c-.2 1.46-.46 2.6-.82 3.45a3.55 3.55 0 01-1.57 1.81 5.9 5.9 0 01-2.79.56h-2c-.65 0-1.15-.06-1.49-.17a1.06 1.06 0 01-.69-.7 5 5 0 01-.19-1.56v-7.51h1.7c.82 0 1.44.17 1.86.5l.1.08c.41.4.7.9.87 1.53.16.62.3 1.27.4 1.95h.7a80.42 80.42 0 01-.18-4.37l-.01-1.7c-.01-.6.02-1.5.1-2.67h-.7c-.1.51-.23 1.09-.39 1.72a3.84 3.84 0 01-.83 1.65c-.4.46-1.04.7-1.92.7h-1.7zm21.6.92c.76 0 1.34.18 1.74.55.4.37.72.88.94 1.52.23.65.43 1.41.62 2.3l.61 3.07c.27 1.3.71 2.17 1.34 2.63.63.46 1.38.7 2.26.7.86 0 1.55-.16 2.06-.48.52-.32 1-.8 1.48-1.43l-.43-.34c-.25.3-.48.55-.7.72-.2.18-.48.27-.8.3-.44 0-.76-.19-.98-.56-.21-.37-.41-1-.6-1.88l-.77-3.14a4.97 4.97 0 00-1.46-2.83c-.7-.61-1.83-1.02-3.37-1.23l-.25-.03.12-.02c.6-.09 1.16-.2 1.65-.37l.2-.07a7.24 7.24 0 002.59-1.49 5.16 5.16 0 001.34-1.97c.25-.7.38-1.38.38-2.02 0-1.58-.64-2.86-1.94-3.86-1.29-1-3.24-1.49-5.84-1.49l-1.9.03a125.59 125.59 0 01-5.04 0l-1.83-.06v.62c.68.02 1.2.1 1.55.23.36.13.6.38.71.74.11.35.17.91.17 1.67v15.26c0 .74-.06 1.3-.17 1.66-.11.37-.34.62-.7.74-.34.13-.86.2-1.56.25v.61c.47-.04 1.08-.06 1.83-.07a181.56 181.56 0 014.7 0c.76 0 1.38.03 1.87.07v-.61a5.97 5.97 0 01-1.54-.25c-.35-.12-.58-.37-.7-.74s-.2-.92-.2-1.66v-7.07h2.62zm-2.61-8.19c0-1.06.14-1.77.41-2.12.28-.35.86-.52 1.74-.52 1.73 0 2.94.44 3.63 1.33.7.9 1.05 2.15 1.05 3.77 0 .95-.13 1.8-.39 2.57a3.43 3.43 0 01-1.47 1.85c-.73.46-1.78.7-3.16.7h-1.81V3.68z" fill="#FFF" fill-rule="nonzero"/>
</svg>
