<svg xmlns="http://www.w3.org/2000/svg" viewBox="0 0 216 50">
  <g fill="#FFF" fill-rule="nonzero">
    <path d="M31.32 36.38l-9 3.87v-.39c-1.74.44-3.66.7-5.48.78-8.47-.08-15.2-4.46-15.27-9.68v-1.93c2.78 4 8.44 6.67 15.27 6.58 2.3.1 4.67-.27 6.65-.78l.78-1.93a26.1 26.1 0 01-7.43 1.16c-8.47.02-15.2-4.37-15.27-9.68v-1.55c2.78 3.7 8.43 6.38 15.27 6.2 3.07.18 6.08-.46 8.6-1.55l.4-1.94a18.6 18.6 0 01-9 1.94c-8.47.1-15.2-4.28-15.27-9.68v-1.54c2.78 3.78 8.44 6.46 15.27 6.58a24.69 24.69 0 0010.57-2.71l.39-2.33c-2.74 2-6.73 3.3-10.96 3.49-8.47-.19-15.2-4.57-15.27-10.07.07-5.22 6.8-9.6 15.27-9.67 5.04.07 9.73 1.82 12.52 4.64l.28.45h1.97l-.29-.45C28.54 2.46 23 0 16.84 0 7.46 0 0 5.1 0 11.22v20.13c.33 5.97 7.62 10.84 16.84 10.84 6.08 0 11.55-2.37 14.48-5.8z"/>
    <path d="M27.66 50l3.16-13.28-9.09 3.9 5.53-23.04H16.6l2.77-11.33h33.98l-2.77 11.33H39.52l-2.37 6.25 12.25-5.08L27.66 50zm5.53-16.02l-1.58 7.82 13.04-19.53-10.67 4.68 4.74-10.93H49.4l1.98-8.2H20.55l-1.98 8.2h10.67L24.1 37.89l9.1-3.9zm43.56-20.25a4.26 4.26 0 01-1.43 3.06c-.87.74-2 1.12-3.41 1.12a4.53 4.53 0 01-3.65-1.56c-.88-1.04-1.32-2.47-1.32-4.28v-.74c0-1.16.2-2.18.6-3.06a4.6 4.6 0 014.4-2.74c1.39 0 2.5.38 3.36 1.12a4.59 4.59 0 011.47 3.14h-2.48c-.06-.78-.28-1.35-.65-1.7-.38-.35-.94-.52-1.7-.52-.83 0-1.45.3-1.86.89-.4.6-.62 1.51-.63 2.76v.9c0 1.3.2 2.26.59 2.86.4.6 1.02.9 1.87.9.76 0 1.33-.18 1.71-.53.38-.35.6-.89.65-1.62h2.48zm12.81-1.74c0 1.19-.21 2.23-.63 3.12a4.72 4.72 0 01-4.48 2.8 4.78 4.78 0 01-4.5-2.77 7.07 7.07 0 01-.64-3.08v-.6c0-1.18.21-2.22.64-3.12a4.78 4.78 0 014.48-2.8 4.77 4.77 0 014.48 2.8c.44.9.65 1.94.65 3.12v.53zm-2.51-.54c0-1.26-.23-2.22-.68-2.88a2.21 2.21 0 00-1.94-.98c-.83 0-1.47.32-1.92.97-.46.64-.68 1.6-.69 2.85v.58c0 1.23.23 2.19.68 2.86a2.2 2.2 0 001.95 1.02c.83 0 1.47-.32 1.92-.98.45-.65.67-1.6.68-2.86v-.58zm8.24 6.3h-2.48V5.7h2.48v12.04zm13.38 0h-2.48l-4.83-7.93v7.92h-2.48V5.7h2.48l4.84 7.94V5.7h2.47v12.04zM120.95 7.7h-3.69v10.03h-2.48V7.71h-3.64v-2h9.81v2zm9.95 4.81h-4.76v3.23h5.59v2h-8.07V5.7h8.05v2.01h-5.57v2.87h4.76v1.94zm6.05 3.23h5.27v2h-7.75V5.7h2.48v10.05zm15.23-3.23h-4.77v3.23h5.6v2h-8.08V5.7H153v2.01h-5.58v2.87h4.77v1.94zm13.1 3.7c-.45.53-1.08.95-1.9 1.24-.81.3-1.72.45-2.71.45a5.37 5.37 0 01-2.74-.69 4.56 4.56 0 01-1.82-1.98 6.99 6.99 0 01-.66-3.05v-.82c0-1.2.2-2.24.61-3.12a4.5 4.5 0 011.75-2.02c.77-.46 1.66-.7 2.69-.7 1.42 0 2.54.34 3.35 1.03.8.68 1.28 1.67 1.43 2.97h-2.42a2.4 2.4 0 00-.73-1.51c-.38-.32-.9-.48-1.56-.48a2.2 2.2 0 00-1.93.95 5.01 5.01 0 00-.67 2.83v.76c0 1.27.24 2.22.72 2.87s1.19.96 2.11.96c.93 0 1.6-.2 2-.6v-2.07h-2.26v-1.82h4.74v4.8zm7.75-2.89h-1.97v4.41h-2.48V5.7h4.47c1.42 0 2.52.32 3.29.95a3.28 3.28 0 011.16 2.69c0 .82-.18 1.5-.54 2.06-.35.54-.89.98-1.61 1.3l2.6 4.93v.11h-2.66l-2.26-4.4zm-1.97-2h2c.62 0 1.1-.17 1.44-.48.35-.32.52-.76.52-1.31 0-.57-.16-1.02-.49-1.34-.32-.33-.81-.49-1.48-.49h-2v3.61zm16.41 3.93h-4.35l-.83 2.48h-2.63l4.48-12.04h2.3l4.5 12.04h-2.63l-.84-2.48zm-3.68-2h3.01l-1.51-4.52-1.5 4.51zm12.05.24v4.24h-2.48V5.7h4.7c.9 0 1.7.17 2.38.5.69.33 1.22.8 1.59 1.4.37.62.55 1.31.55 2.09 0 1.18-.4 2.1-1.21 2.79A5.04 5.04 0 01198 13.5h-2.17zm0-2.01h2.22c.65 0 1.15-.16 1.5-.46.34-.31.51-.75.51-1.33 0-.59-.17-1.06-.52-1.43a1.96 1.96 0 00-1.44-.56h-2.27v3.78zm19.53 6.25h-2.48v-5.16h-4.83v5.16h-2.49V5.7h2.49v4.88h4.83V5.7h2.48v12.04zM70.93 35.48v-7.12h2.68v-.96H67.2v.96h2.66v7.12h1.07zm4.64 0v-3.2c0-.46.05-.82.16-1.08.11-.26.3-.47.56-.62.26-.15.53-.23.83-.23.4 0 .7.11.91.34.22.23.32.59.32 1.08v3.71h1v-3.7c0-.58-.07-1.02-.21-1.32a1.5 1.5 0 00-.69-.7c-.32-.18-.7-.26-1.13-.26-.7 0-1.29.26-1.75.8v-2.9h-1v8.08h1zm7.74.14a2.7 2.7 0 001.68-.5c.44-.33.74-.8.9-1.4l-1.03-.12a1.9 1.9 0 01-.6.91c-.27.2-.58.29-.94.29-.49 0-.9-.17-1.22-.51a2.25 2.25 0 01-.55-1.48h4.37v-.26c0-.97-.25-1.72-.74-2.25a2.5 2.5 0 00-1.92-.8c-.81 0-1.47.27-1.97.81-.51.55-.76 1.31-.76 2.3 0 .95.25 1.69.75 2.22.5.52 1.18.79 2.03.79zm1.56-3.63h-3.26c.03-.5.2-.91.51-1.22.31-.3.7-.46 1.15-.46.5 0 .91.2 1.23.58.2.24.33.61.37 1.1zm6.63 3.5V30.4h1.14v-.77H91.5v-.54c0-.35.06-.6.18-.72.13-.13.34-.2.64-.2.19 0 .38.02.59.06l.15-.87c-.34-.06-.65-.1-.93-.1-.43 0-.77.08-1.01.24-.24.16-.41.37-.5.63-.08.19-.11.48-.11.87v.63h-.88v.77h.88v5.08h.99zm3.89.13c.78 0 1.4-.33 1.86-1v.86h.88v-5.85h-.99v3.14c0 .5-.05.88-.16 1.14-.11.26-.3.47-.56.62-.26.15-.54.23-.83.23-.3 0-.55-.07-.75-.22-.2-.15-.34-.36-.4-.62a5.86 5.86 0 01-.06-1.04v-3.25h-1v3.63c0 .42.03.73.07.92.06.3.16.54.3.74.15.2.37.37.67.5.3.13.62.2.97.2zm5.86-.06c.22 0 .47-.03.75-.09l-.15-.87-.43.03a.66.66 0 01-.34-.07.4.4 0 01-.17-.19 1.71 1.71 0 01-.05-.55V30.4h1v-.77h-1v-2.05l-1 .6v1.45h-.72v.77h.73v3.37c0 .6.04.98.12 1.17.08.18.22.33.42.45.2.11.48.17.84.17zm3.55.06c.79 0 1.4-.33 1.86-1v.86h.89v-5.85h-1v3.14c0 .5-.05.88-.16 1.14-.1.26-.29.47-.55.62-.26.15-.54.23-.84.23-.3 0-.55-.07-.75-.22-.2-.15-.33-.36-.4-.62a5.86 5.86 0 01-.05-1.04v-3.25h-1v3.63c0 .42.02.73.06.92.06.3.16.54.3.74.15.2.38.37.68.5.3.13.62.2.96.2zm5.29-.14v-3.06c0-.42.05-.8.16-1.16.07-.23.2-.41.37-.54.17-.13.37-.2.58-.2.25 0 .49.07.73.22l.34-.92a1.93 1.93 0 00-1.02-.32c-.23 0-.44.06-.63.2-.2.13-.4.4-.63.82v-.9h-.9v5.86h1zm5.23.14a2.7 2.7 0 001.68-.5c.44-.33.74-.8.9-1.4l-1.03-.12a1.9 1.9 0 01-.61.91c-.26.2-.57.29-.93.29-.5 0-.9-.17-1.23-.51-.32-.34-.5-.84-.54-1.48h4.36v-.26c0-.97-.24-1.72-.74-2.25a2.5 2.5 0 00-1.91-.8c-.81 0-1.47.27-1.98.81-.5.55-.76 1.31-.76 2.3 0 .95.25 1.69.75 2.22.5.52 1.18.79 2.04.79zm1.56-3.63h-3.27c.04-.5.2-.91.52-1.22.3-.3.7-.46 1.15-.46.5 0 .91.2 1.23.58.2.24.33.61.37 1.1zm7.78 3.63c.5 0 .98-.12 1.4-.36.44-.24.77-.58 1-1 .22-.44.33-1.03.33-1.79a3 3 0 00-.76-2.18 2.63 2.63 0 00-1.98-.8c-.72 0-1.33.22-1.84.66-.6.52-.9 1.32-.9 2.4 0 1 .25 1.75.76 2.28.5.52 1.16.79 1.98.79zm0-.82c-.5 0-.91-.19-1.24-.56-.33-.37-.49-.93-.49-1.68 0-.75.16-1.31.49-1.69.33-.37.74-.55 1.24-.55.48 0 .9.18 1.22.56.33.37.5.92.5 1.64 0 .77-.17 1.34-.5 1.72-.32.37-.73.56-1.22.56zm5.12.68V30.4h1.14v-.77h-1.14v-.54c0-.35.06-.6.19-.72.12-.13.34-.2.64-.2.18 0 .38.02.58.06l.15-.87c-.34-.06-.64-.1-.92-.1-.44 0-.77.08-1.02.24-.24.16-.4.37-.5.63-.07.19-.1.48-.1.87v.63h-.88v.77h.88v5.08h.98zm6.61.08c.22 0 .47-.03.75-.09l-.14-.87a3.2 3.2 0 01-.44.03.66.66 0 01-.34-.07.42.42 0 01-.17-.19 1.73 1.73 0 01-.05-.55V30.4h1v-.77h-1v-2.05l-.99.6v1.45h-.72v.77h.72v3.37c0 .6.04.98.13 1.17.08.18.22.33.41.45.2.11.48.17.84.17zm2.57-.08v-3.2c0-.46.06-.82.17-1.08.1-.26.3-.47.55-.62.26-.15.54-.23.83-.23.4 0 .7.11.91.34.22.23.33.59.33 1.08v3.71h.99v-3.7c0-.58-.07-1.02-.21-1.32a1.5 1.5 0 00-.69-.7c-.32-.18-.7-.26-1.13-.26-.7 0-1.29.26-1.75.8v-2.9h-1v8.08h1zm7.75.14a2.7 2.7 0 001.67-.5c.44-.33.74-.8.9-1.4l-1.02-.12a1.9 1.9 0 01-.62.91c-.25.2-.56.29-.93.29-.49 0-.9-.17-1.22-.51-.33-.34-.51-.84-.55-1.48h4.37v-.26c0-.97-.24-1.72-.74-2.25a2.5 2.5 0 00-1.92-.8c-.8 0-1.46.27-1.97.81-.5.55-.76 1.31-.76 2.3 0 .95.25 1.69.75 2.22.5.52 1.18.79 2.04.79zm1.56-3.63H145c.03-.5.2-.92.51-1.22.31-.3.7-.46 1.15-.46.5 0 .92.2 1.23.58.2.24.33.61.38 1.1zm6.39 3.5v-3.04c0-.54.05-.94.16-1.23.1-.28.27-.5.51-.64.24-.15.5-.22.78-.22.36 0 .63.1.79.33.16.22.24.55.24.99v3.8h1v-3.4c0-.6.13-1.04.4-1.31.27-.28.62-.41 1.03-.41.23 0 .42.05.6.16.16.1.28.24.34.42.07.17.1.46.1.86v3.68h.99v-4.02c0-.66-.16-1.16-.47-1.48-.31-.32-.76-.48-1.34-.48a2.1 2.1 0 00-1.81 1.02 1.45 1.45 0 00-.59-.75 1.93 1.93 0 00-1.06-.27 2.06 2.06 0 00-1.78.95v-.82h-.89v5.85h1zm10.79.13c.5 0 .98-.12 1.4-.36.44-.24.77-.58 1-1 .22-.44.33-1.03.33-1.79a3 3 0 00-.76-2.18 2.63 2.63 0 00-1.98-.8c-.72 0-1.33.22-1.84.66-.6.52-.9 1.32-.9 2.4 0 1 .25 1.75.76 2.28.5.52 1.16.79 1.98.79zm0-.82c-.5 0-.91-.19-1.24-.56-.33-.37-.49-.93-.49-1.68 0-.75.16-1.31.49-1.69.33-.37.74-.55 1.23-.55.5 0 .9.18 1.23.56.33.37.5.92.5 1.64 0 .77-.17 1.34-.5 1.72-.32.37-.73.56-1.23.56zm4.89.68v-3.2c0-.74.15-1.25.46-1.52.3-.27.67-.4 1.1-.4.26 0 .49.06.69.18.2.12.33.27.4.48.08.2.12.5.12.9v3.56h1v-3.6c0-.46-.02-.78-.06-.96a1.9 1.9 0 00-.3-.73c-.16-.21-.38-.38-.67-.5-.3-.13-.62-.2-.98-.2a2.1 2.1 0 00-1.86.97v-.83h-.9v5.85h1zm7.75.14a2.7 2.7 0 001.67-.5c.44-.33.74-.8.9-1.4l-1.02-.12a1.9 1.9 0 01-.62.91c-.25.2-.57.29-.93.29-.49 0-.9-.17-1.22-.51-.33-.34-.51-.84-.55-1.48h4.37v-.26c0-.97-.24-1.72-.74-2.25a2.5 2.5 0 00-1.92-.8c-.8 0-1.47.27-1.97.81-.51.55-.76 1.31-.76 2.3 0 .95.25 1.69.75 2.22.5.52 1.18.79 2.04.79zm1.56-3.63h-3.27c.03-.5.2-.92.51-1.22.31-.3.7-.46 1.15-.46.5 0 .92.2 1.23.58.2.24.33.61.38 1.1zm2.85 5.87c.32 0 .59-.08.82-.23.23-.15.43-.4.6-.72.14-.24.32-.68.56-1.33l2.23-5.95h-1l-1.25 3.41c-.15.43-.29.88-.4 1.34-.13-.48-.27-.93-.43-1.36l-1.22-3.39h-1.07l2.23 5.86-.1.25c-.13.4-.23.64-.3.74a.92.92 0 01-.32.3c-.13.08-.31.11-.53.11-.16 0-.35-.03-.57-.08l.11.93a2 2 0 00.64.12z"/>
  </g>
</svg>
