<svg xmlns="http://www.w3.org/2000/svg" viewBox="0 0 167 18">
  <path d="M27.2 2.13a.61.61 0 00-.6.61v11.9c0 .34.27.62.6.62h11.4c.35 0 .62-.28.62-.62V2.74a.62.62 0 00-.61-.61H27.2zm11.4 15.11H27.2a2.6 2.6 0 01-2.59-2.6V2.74a2.6 2.6 0 012.6-2.6h11.4a2.6 2.6 0 012.6 2.6v11.9a2.6 2.6 0 01-2.6 2.6zm100.95.03h-11.98V15.3h11.98c.34 0 .61-.28.61-.62v-4.46c0-.34-.27-.62-1.27-.62h-9.41c-.78 0-1.94-1.16-1.94-2.6V2.77a2.6 2.6 0 012.6-2.6h11.49v1.99h-11.5a.61.61 0 00-.6.61V7c0 .34.27.62.6.62h9.42a2.6 2.6 0 012.6 2.6v4.46a2.6 2.6 0 01-2.6 2.6m-34.57 0H91.9V.17h1.98v15.11h11.1v1.99m-25.8 0l-12.3-14.1v14.11h-1.99V.18h2L79.5 14.61V.17h1.99v17.1h-2.31m-27.13 0h2V.17h-2zm62.45 0h2V.17h-2zM166.54.17h-15.96v2h6.99v15.1h1.99V2.17h6.98v-2M14.75 17.25H2.73a2.6 2.6 0 01-2.6-2.6V2.74a2.6 2.6 0 012.6-2.6h12.03v1.99H2.73a.62.62 0 00-.61.61v11.9c0 .34.27.62.61.62h12.03v1.98" fill="#FFF" fill-rule="nonzero"/>
</svg>
