<svg xmlns="http://www.w3.org/2000/svg" viewBox="0 0 149 29">
  <g fill="#FFF" fill-rule="nonzero">
    <path d="M12.89 14.46c0 .78.61 1.4 1.4 1.4.78 0 1.39-.62 1.39-1.4 0-.79-.61-1.4-1.4-1.4-.78 0-1.39.61-1.39 1.4m11.76-1.4c-.78 0-1.4.61-1.4 1.4 0 .78.61 1.4 1.4 1.4.78 0 1.4-.62 1.4-1.4 0-.79-.62-1.4-1.4-1.4m0 10.54c-.78 0-1.4.61-1.4 1.4 0 .78.61 1.39 1.4 1.39.78 0 1.4-.61 1.4-1.4 0-.78-.62-1.39-1.4-1.39"/>
    <path d="M27.61 1.48a3.71 3.71 0 00-5.4-.43l-.17.17-.35.26a3.6 3.6 0 01-4.8-.26v-.09a3.96 3.96 0 00-1.65-.96c-.08 0-.26-.08-.35-.08H13.5c-.09 0-.17 0-.26.08h-.17c-.1 0-.18.1-.27.1 0 0-.08 0-.08.08-.1 0-.18.08-.26.08 0 0-.1 0-.1.1-.08.08-.17.08-.25.17 0 0-.1 0-.1.08-.08.1-.16.1-.25.18l-.09.08-.17.18-.35.26a3.48 3.48 0 01-4.7-.26s-.1 0-.1-.09L6.19.96A3.58 3.58 0 004.35.09H2.8c0 .08-.09.08-.18.17h-.08c-.44.17-.87.35-1.22.7l-.09.08-.26.27c-.35.34-.53.78-.7 1.13 0 .09-.09.17-.09.26s-.08.17-.08.35C0 3.65 0 4.27.17 4.88c0 .09.1.17.1.26v.09c0 .08.08.17.08.26.08.08.08.17.17.34.18.1.35.27.44.35l.17.18.18.17a3.55 3.55 0 01-.1 4.97c-.17.17-.43.43-.51.6-.09.1-.09.18-.18.35v.1c-.09.08-.09.17-.17.25v.09c0 .09-.09.17-.09.26v.09c0 .09 0 .17-.09.26v1.3c0 .1 0 .18.1.27v.08c.16.61.51 1.22 1.04 1.75a3.57 3.57 0 010 5.05l-.1.09-.17.17v.09c-.08.08-.17.17-.17.26 0 0 0 .09-.09.09-.08.08-.08.17-.17.26l-.09.08c0 .1-.08.1-.08.18s-.1.08-.1.17 0 .09-.08.18c-.17.34-.26.78-.26 1.13v.7c.09.26.09.52.26.7 0 .08.09.17.09.17s0 .08.08.08c0 .09.1.18.1.26 0 0 0 .1.08.1.09.17.17.25.26.34 0 0 0 .09.09.09 0 0 0 .08.08.08 0 .1.1.1.1.1l.08.08c.09.08.17.08.17.17l.1.09s.08 0 .08.09c.08.08.17.17.26.17 0 0 .09 0 .09.09.08.08.17.08.26.17h.08c.1.09.18.09.35.09.09 0 .26.09.35.09h.09c.08 0 .17 0 .26.08h.78c.26 0 .44-.08.7-.08h.09c.08 0 .17-.1.26-.1h.09c.08 0 .17-.08.26-.08h.08c.18-.09.44-.26.61-.35l.26-.26.1-.09a3.43 3.43 0 015.04 0 3.73 3.73 0 005.66-.26 3.8 3.8 0 000-4.61 3.7 3.7 0 00-5.4-.44l-.17.18-.35.26a3.6 3.6 0 01-4.79-.26l-.17-.18-.26-.35a3.6 3.6 0 01.26-4.79 3.44 3.44 0 001.13-2.6v-.27c0-.87-.35-1.74-1.05-2.35 0-.09-.08-.09-.08-.18l-.26-.35a3.6 3.6 0 01.26-4.79l.08-.08.1-.09a3.43 3.43 0 015.04 0l.1.09.08.08.17.18c.09 0 .09.09.18.09.08 0 .08.08.17.08s.09.1.17.1.1.08.18.08.09.08.17.08.09.1.18.1c.08 0 .08 0 .17.08.09 0 .09 0 .18.09h1.48c.08 0 .17 0 .26-.1h.17c.09 0 .18-.08.26-.08h.09c.09 0 .17-.09.35-.17.35-.18.7-.44.96-.7l.08-.09a3.43 3.43 0 015.05 0 3.57 3.57 0 005.58-.17 3.66 3.66 0 000-4.53m19.86 10.8a4.8 4.8 0 00-3.49-1.57c-.7 0-1.39.18-1.91.44s-.96.6-1.3 1.13c-.36.44-.62.96-.8 1.57a6.64 6.64 0 00-.25 1.83c0 .6.08 1.22.35 1.83.17.6.52 1.04.87 1.48a4.03 4.03 0 003.22 1.4 4.48 4.48 0 003.4-1.57l1.82 1.9c-.7.8-1.48 1.32-2.35 1.66-.87.35-1.83.53-2.87.53a8.14 8.14 0 01-2.96-.53 6.84 6.84 0 01-2.27-1.48 6.8 6.8 0 01-1.48-2.26 8.12 8.12 0 01-.52-2.96c0-1.05.17-2.1.52-2.96.35-.87.87-1.66 1.48-2.35a6.8 6.8 0 012.27-1.49c.87-.34 1.91-.52 2.96-.52s2 .18 2.87.52c.96.35 1.74.96 2.44 1.66l-2 1.74m5.92 3.22c0 .7.09 1.4.35 1.92.17.6.52 1.13.87 1.57.35.43.87.78 1.4.96.52.26 1.21.34 1.9.34.7 0 1.32-.08 1.92-.34a5.6 5.6 0 001.4-.96c.35-.44.7-.96.87-1.57.17-.61.35-1.22.35-1.92s-.09-1.39-.35-1.91a4.57 4.57 0 00-.87-1.57 3.09 3.09 0 00-1.4-.96 4.43 4.43 0 00-1.91-.35c-.7 0-1.3.09-1.92.35-.52.26-1.04.61-1.39.96-.35.44-.7.96-.87 1.57-.18.6-.35 1.22-.35 1.91zm-2.79 0c0-1.04.18-2 .53-2.87.34-.87.87-1.66 1.56-2.35a6.2 6.2 0 012.36-1.57 7.7 7.7 0 012.87-.61c1.05 0 2 .17 2.87.61.87.35 1.66.87 2.36 1.57.7.7 1.13 1.48 1.56 2.35.35.87.53 1.83.53 2.87 0 1.05-.18 2-.53 2.88a6.96 6.96 0 01-1.56 2.35 7.71 7.71 0 01-5.23 2.18c-1.05 0-2-.18-2.87-.61a6.97 6.97 0 01-2.36-1.57 7.4 7.4 0 01-1.56-2.35 9.92 9.92 0 01-.53-2.88zm17.34 7.06h2.6V8.62h-2.6v13.94zm-.61-18.99c0-.52.17-.96.52-1.4.35-.34.78-.6 1.3-.6.53 0 .96.17 1.31.6a2.13 2.13 0 010 2.79c-.35.35-.78.62-1.3.62-.53 0-.96-.18-1.31-.61a1.98 1.98 0 01-.52-1.4zm6.88 5.05h2.6v2.18h.1c.35-.78.87-1.4 1.74-1.83.78-.44 1.74-.7 2.87-.7.7 0 1.3.1 1.92.35.6.18 1.13.53 1.57.96.43.44.78.96 1.13 1.66.26.7.43 1.48.43 2.44v8.97h-2.6v-8.28c0-.6-.1-1.22-.27-1.65a3.58 3.58 0 00-.7-1.14 2.1 2.1 0 00-1.04-.6 5.14 5.14 0 00-1.22-.18c-.52 0-1.05.09-1.48.26a2.9 2.9 0 00-1.22.87c-.35.35-.61.87-.79 1.48-.17.61-.26 1.3-.26 2.1v7.22h-2.61V8.63m21.86 11.75c.7 0 1.3-.09 1.92-.35A4.55 4.55 0 0099.64 19c.35-.44.7-.96.87-1.57.17-.61.35-1.22.35-2 0-.7-.09-1.4-.35-2a4.59 4.59 0 00-.87-1.58 4.57 4.57 0 00-1.48-1.04 4.7 4.7 0 00-1.92-.35c-.7 0-1.3.09-1.91.35-.61.26-1.05.6-1.48 1.04-.35.44-.7.96-.88 1.57-.17.61-.34 1.22-.34 2 0 .7.08 1.4.34 2 .18.62.53 1.14.87 1.58.35.43.87.78 1.48 1.04.53.17 1.22.35 1.92.35zm7.23 2.09h-2.61v-2h-.09a5.13 5.13 0 01-2.09 1.74 6.2 6.2 0 01-2.79.6 8.15 8.15 0 01-2.96-.51 6.47 6.47 0 01-3.66-3.92 8.49 8.49 0 010-5.84c.35-.87.79-1.65 1.4-2.35a5.9 5.9 0 012.26-1.57 7.8 7.8 0 012.96-.52c.96 0 1.92.17 2.79.6a4.95 4.95 0 012 1.75h.09V0h2.61v22.47h.09zm13.33-8.1c0-.61-.1-1.13-.27-1.66a3.28 3.28 0 00-.78-1.3 6.15 6.15 0 00-1.22-.87c-.52-.18-1.04-.35-1.74-.35a3.9 3.9 0 00-1.74.35c-.53.26-.96.52-1.4.96-.35.34-.7.78-.87 1.3-.17.52-.35.96-.35 1.4h8.37v.17zm-8.37 2.18c0 .6.18 1.13.44 1.65.26.53.61.96 1.04 1.3.44.36.96.62 1.49.8.6.17 1.13.25 1.74.25.78 0 1.57-.17 2.18-.6a6.53 6.53 0 001.65-1.49l2 1.57a7.4 7.4 0 01-6.18 2.88 7.82 7.82 0 01-2.96-.53 5.9 5.9 0 01-2.27-1.56 5.83 5.83 0 01-1.39-2.36c-.35-.87-.52-1.83-.52-2.87s.17-2 .52-2.87c.35-.87.87-1.66 1.48-2.36s1.4-1.13 2.27-1.56a7.66 7.66 0 012.87-.53c1.22 0 2.26.18 3.14.61a5.7 5.7 0 012.09 1.66 7.55 7.55 0 011.56 5.05v.96h-11.15zm21.43-4.45c-.35-.34-.7-.7-1.13-.95a3.35 3.35 0 00-3.31 0c-.44.26-.7.6-.7 1.13 0 .44.18.78.44.96.26.26.6.43.95.6.35.18.79.27 1.14.36.43.08.78.17 1.04.17.52.17 1.13.26 1.57.52.52.18.96.44 1.3.79.35.35.62.7.88 1.13.17.43.35.96.35 1.65 0 .79-.18 1.48-.53 2a5 5 0 01-1.3 1.4c-.53.35-1.14.61-1.83.78a8.45 8.45 0 01-5.05-.26 5.36 5.36 0 01-2.36-1.91l2-1.66c.44.44.88.79 1.4 1.13a3.3 3.3 0 001.92.53c.35 0 .7 0 1.04-.09.35-.09.61-.17.87-.35.26-.17.44-.35.61-.52.18-.26.26-.52.26-.78 0-.35-.08-.7-.34-.96a3.1 3.1 0 00-.87-.61c-.35-.18-.7-.26-1.05-.35l-1.05-.26c-.52-.18-1.13-.26-1.56-.44a4.62 4.62 0 01-1.3-.7c-.36-.26-.7-.7-.97-1.13a3.32 3.32 0 01-.35-1.65c0-.7.18-1.4.44-1.92s.7-.96 1.22-1.3a5.74 5.74 0 011.65-.79 7.23 7.23 0 014.62.26c.87.35 1.57.96 2.09 1.75l-2.09 1.48M134.91.35h2.62v14.1l5.92-5.91h3.57l-6.36 6.27 6.97 7.49h-3.75l-6.35-7.15v7.15h-2.62V.35"/>
  </g>
</svg>
