<svg xmlns="http://www.w3.org/2000/svg" viewBox="0 0 177 35">
  <g fill="#FFF" fill-rule="nonzero">
    <path d="M.26 23.74l2.22-.36V2.58L0 2.25.13 0h15.55l-.39 6.3-3.1-.1L12 2.25H7.2v9.38h2.09l.48-2.16 2.17.07V16H9.77l-.51-2.22h-2.1v9.93H12l.45-4.31 3.26.1.26 6.56H.17zm17.16 2.35l.1-1.92 1.74-.36V10.68l-2.03-.2V8.52l5.1-.75.38 1.11v.75a6.1 6.1 0 014.61-2.09c2.78 0 4.84 1.7 4.84 5.07v11.17l1.84.35-.1 1.93h-6.06V13.6c0-1.8-.65-2.81-2.26-2.81-.55 0-.93.1-1.35.26-.26.23-.52.55-.75.85v11.95l1.84.36-.13 1.92h-7.77v-.03zm97.45 0l.06-1.92 1.75-.36V10.68l-2.04-.2V8.52l5.1-.75.39 1.11v.75a6.1 6.1 0 014.61-2.09c2.78 0 4.84 1.7 4.84 5.07v11.17l1.84.35-.1 1.93h-6.03V13.6c0-1.8-.65-2.81-2.26-2.81-.55 0-.93.1-1.35.26-.26.23-.52.55-.75.85v11.95l1.84.36-.13 1.92h-7.77v-.03zm-71.26-.36c-.7.3-1.96.62-3.61.62-2.16 0-4.16-.98-4.16-4.18V10.68l-2.07-.33.1-2.28 2.32-.1 1-3.5 2.97-.13V8.1h3.2l-.23 2.29-2.94.32v11.5c0 .94.52 1.56 1.49 1.56h1.74l.2 1.97zm120.74.36l.07-1.9 1.64-.38V10.68l-1.93-.2V8.52l5.29-.75.35 1.28v.42a9.05 9.05 0 015.52-1.73l.77.69-.54 4.96-2.9-.1-.3-2.64c-.68.1-1.32.3-1.87.68v12.51l1.84.4-.13 1.89h-7.8v-.04zm-75.96 0l.1-1.9 1.64-.38V10.68l-1.94-.2V8.52l5.3-.75.35 1.28v.42a9.05 9.05 0 015.51-1.73l.78.69-.61 4.96-2.9-.1-.3-2.64c-.67.1-1.32.3-1.87.68v12.51l1.84.4-.13 1.89H88.4v-.04zm-43.49 0l.1-1.9 1.65-.38V10.68l-1.94-.2V8.52L50 7.77l.35 1.28v.42a9.03 9.03 0 015.49-1.73l.77.69-.54 4.96-2.9-.1-.3-2.64c-.68.1-1.32.3-1.87.68v12.51l1.84.4-.13 1.89h-7.8v-.04zm16.71-8c0 3.14 1.36 5.55 4.04 5.55 1.38 0 2.48-.3 3.77-.91l.74 1.73a8.91 8.91 0 01-5.68 1.9c-4.7 0-7.42-4.12-7.42-9.41 0-4.5 1.97-9.44 7.36-9.44 4.7 0 6.48 4.41 6.48 9.3L70.45 18l-8.84.1zM61.55 16l5.42-.26c-.1-2.19-.55-5.65-2.68-5.65-.52 0-.87.1-1.52.42-.87 1.5-1.22 4.22-1.22 5.5zm75.03 2.1c0 3.13 1.35 5.54 4.03 5.54 1.39 0 2.49-.3 3.78-.91l.74 1.73a8.91 8.91 0 01-5.68 1.9c-4.7 0-7.42-4.12-7.42-9.41 0-4.5 1.97-9.44 7.36-9.44 4.7 0 6.48 4.41 6.48 9.3l-.45 1.18-8.84.1zm-.06-2.1l5.42-.26c-.1-2.19-.55-5.65-2.68-5.65-.52 0-.87.1-1.52.42-.87 1.5-1.22 4.22-1.22 5.5zm-31.42 2.1c0 3.13 1.35 5.54 4.03 5.54 1.39 0 2.48-.3 3.77-.91l.74 1.73a8.91 8.91 0 01-5.67 1.9c-4.71 0-7.42-4.12-7.42-9.41 0-4.5 1.97-9.44 7.35-9.44 4.71 0 6.49 4.41 6.49 9.3l-.46 1.18-8.83.1zm-.07-2.1l5.42-.26c-.1-2.19-.55-5.65-2.68-5.65-.51 0-.87.1-1.51.42-.87 1.5-1.26 4.22-1.23 5.5zm53.03 10.1l-.45-1.58c-1.2 1.15-2.35 1.83-4.16 1.83-2.77 0-5.26-1.4-5.26-5.29V10.22l-2.03-.2V8.3l5.87-.68.45 1.57v11.36c0 2 .81 3.04 2.4 3.04.44 0 1.02-.07 1.54-.26.29-.3.58-.66.8-1.02V10.22l-2.1-.2V8.3l5.94-.7.46 1.58V23.8l1.83.36-.22 1.92h-5.07zM79.72 23.74c-.95 0-1.7-.16-2.3-.48V11.87c.26-.39.56-.74.85-1.06.56-.2 1.06-.26 1.65-.26 2.47 0 2.9 2.45 2.9 6.84 0 4.22-.66 5.38-.82 5.87a5.2 5.2 0 01-2.28.48zm7.38-7.13c0-5.45-1.65-8.87-5.76-8.87a5.48 5.48 0 00-4.55 2.2v-.62l-.46-1.55-5.36.75v1.87l2.07.26v22l-1.78.35-.1 1.84h7.94l.13-1.84-1.88-.35v-6.97c.76.42 1.81.68 2.97.68 6.71 0 6.78-6.68 6.78-9.75z"/>
  </g>
</svg>
