<svg xmlns="http://www.w3.org/2000/svg" viewBox="0 0 104 27">
  <path d="M58.69 8.47c0-3.04.05-5.86.2-8.47l-8 1.51v.74l.8.1c.57.05.93.26 1.14.58.21.36.37.88.47 1.67.1 1.51.21 4.96.16 10.4 0 5.38-.05 8.78-.16 10.08 2.88.63 5.13.9 6.8.9 3.13 0 5.59-.9 7.36-2.72 1.78-1.78 2.72-4.29 2.72-7.37a9.2 9.2 0 00-2.04-6.12 6.41 6.41 0 00-5.12-2.4c-1.36 0-2.77.36-4.33 1.1zm.15 16.1c-.1-1.68-.2-6.7-.2-14.9.46-.16 1.1-.26 1.87-.26 1.26 0 2.25.62 2.98 1.93a9.7 9.7 0 011.1 4.86c0 2.46-.42 4.44-1.25 6.11-.84 1.62-1.89 2.46-3.2 2.46-.4-.1-.83-.16-1.3-.2zM20.9.51H0v1.05l1.1.1c.83.16 1.4.47 1.77.94.37.52.58 1.36.63 2.51.42 5.64.42 10.92 0 15.78a6.17 6.17 0 01-.63 2.51c-.36.52-.94.84-1.77.94l-1.1.16v1.04h13.48v-1.04l-1.4-.1a2.56 2.56 0 01-1.78-.94 4.86 4.86 0 01-.63-2.51c-.16-2.1-.26-4.5-.26-7.16l2.82.05c1.51.05 2.56 1.2 3.08 3.5h1.05V8.83H15.3c-.52 2.25-1.51 3.4-3.08 3.45l-2.82.05c0-4.7.1-8.04.26-10.08h4.13c2.92 0 4.9 1.88 6.06 5.64l1.25-.36-.2-7zm-2.45 16.1c0 2.71.78 4.96 2.3 6.74 1.51 1.78 3.76 2.61 6.58 2.61 2.82 0 5.12-.89 6.8-2.72 1.67-1.77 2.45-4.02 2.45-6.74 0-2.71-.78-4.96-2.3-6.74C32.77 8 30.52 7.16 27.7 7.16c-2.82 0-5.12.89-6.8 2.72-1.67 1.77-2.45 4.02-2.45 6.74zm11.65-5.96c.63 1.52.89 3.5.89 5.9 0 5.55-1.15 8.26-3.4 8.26-1.15 0-2.04-.78-2.66-2.35a16.16 16.16 0 01-.9-5.9c0-5.5 1.16-8.2 3.4-8.2 1.16-.06 2.04.72 2.67 2.3zm44.16 12.7a8.9 8.9 0 006.53 2.61c1.62 0 3.03-.31 4.29-1A7.87 7.87 0 0088 22.64l-.52-.63a6.26 6.26 0 01-3.97 1.3c-2.1 0-3.71-.67-4.8-2.08-1.16-1.41-1.68-3.2-1.58-5.5h11.19c0-2.5-.63-4.54-1.94-6.16-1.3-1.57-3.13-2.35-5.49-2.35-2.92 0-5.17.94-6.79 2.77a9.78 9.78 0 00-2.4 6.74c0 2.72.83 4.91 2.56 6.64zm3.87-13.12c.57-1.25 1.3-1.88 2.3-1.88 1.56 0 2.35 1.99 2.35 6.01l-5.54.1c.05-1.56.31-2.97.89-4.23zm24.24-2.09a13.1 13.1 0 00-5.33-1c-2.2 0-3.92.58-5.22 1.68a5.14 5.14 0 00-1.99 4.08c0 1.4.42 2.5 1.2 3.29a9.9 9.9 0 003.66 2.04 9.92 9.92 0 013.03 1.51c.53.53.84 1.1.84 1.88 0 .74-.26 1.42-.84 1.94-.52.57-1.25.83-2.2.83-2.3 0-4.02-1.67-5.22-5.01l-.89.26.21 5.22c1.88.74 3.97 1.1 6.27 1.1 2.4 0 4.24-.52 5.6-1.62a5.32 5.32 0 002.03-4.44c0-1.25-.31-2.3-.99-3.08a8.56 8.56 0 00-3.34-2.1 13.04 13.04 0 01-3.56-1.72 2.4 2.4 0 01-.94-1.93c0-.79.21-1.41.68-1.94a2.22 2.22 0 011.78-.73c2.09 0 3.6 1.52 4.54 4.5l.9-.26-.22-4.5zM52.1 7.68a4.7 4.7 0 00-5.17.58 7.06 7.06 0 00-2.3 3.08l.05-4.18-7.94 1.57v.73l.78.05c1 .1 1.57.89 1.67 2.3.32 3.24.32 6.69 0 10.35-.1 1.4-.68 2.14-1.67 2.3l-.78.1v1h11.08v-1l-1.42-.1c-.99-.1-1.56-.9-1.67-2.3a53.36 53.36 0 01-.1-9.62c.31-.52.99-.84 2.03-.94a5.9 5.9 0 013.5.94l1.94-4.86z" fill="#FFF" fill-rule="nonzero"/>
</svg>
