<svg xmlns="http://www.w3.org/2000/svg" viewBox="0 0 199 32">
  <g fill-rule="nonzero" fill="none">
    <path fill="#FFF" d="M11.92 8.89l2.18 1.38-.83 7.88L25 10.99A12.4 12.4 0 10.7 15.74l11.21-6.85z"/>
    <path fill="#FFF" d="M12.28 22.12l-2.18-1.37.83-7.88-9.18 5.6a12.4 12.4 0 0023.27-4.13l-12.74 7.78z"/>
    <circle cx="13.37" cy="6" r="1.75" fill="#0A0A0E"/>
    <path fill="#FFF" d="M31.32 24.12l3.08-.05V2.3l-3.08.05v21.77zM46.05 8.99c-1.37 0-3.72.62-4.76 2.28V9.3h-2.91v14.82h2.9V16.1c0-2.92 2.21-4.23 4.4-4.23 2.07 0 3.44 1.55 3.44 3.86v8.39h2.9v-8.55c0-2.1-.57-3.83-1.71-4.98A5.8 5.8 0 0046.05 9zm14.72 11.32l-4.45-11h-3.1l6.15 14.8h2.78l6.18-14.8H65.2l-4.42 11zm54.27-11.32c-4.47 0-7.73 3.23-7.73 7.68a7.57 7.57 0 007.74 7.76 7.58 7.58 0 007.77-7.76c0-4.45-3.26-7.68-7.77-7.68zm0 12.7c-2.71 0-4.78-2.16-4.78-5.02 0-2.81 2.07-4.93 4.8-4.93a4.78 4.78 0 014.85 4.93c0 2.86-2.1 5.01-4.86 5.01zm17.81-12.7c-2.14 0-4.1.94-5.1 2.41V9.3h-2.91v21.93h2.9v-9.18c1 1.5 2.89 2.37 5.15 2.37 4.28 0 7.39-3.24 7.39-7.7s-3.12-7.73-7.42-7.73zm-.25 12.7a4.84 4.84 0 01-4.85-4.93 4.83 4.83 0 014.85-5.02c2.66 0 4.74 2.2 4.74 5.02 0 2.81-2.04 4.92-4.74 4.92zm38-10.32c-.98-1.5-2.88-2.37-5.13-2.37-4.28 0-7.4 3.24-7.4 7.7 0 4.47 3.13 7.74 7.43 7.74 2.15 0 4.1-.93 5.1-2.41v2.09h2.92V1.32h-2.91v10.05zm-4.87 10.31c-2.64 0-4.7-2.2-4.7-5.01 0-2.82 2-4.93 4.7-4.93a4.86 4.86 0 014.9 4.93c-.02 2.43-1.73 5.01-4.9 5.01zM177.2 9.31h2.9v14.8h-2.9V9.32zm20.69 0h-2.9v1.72c-1.04-1.3-2.82-2.04-4.9-2.04h-.24c-4.28 0-7.39 3.23-7.39 7.7 0 4.47 3.12 7.74 7.42 7.74h.25c1.98 0 3.8-.8 4.86-2.07v1.76h3.13V9.3h-.23zm-7.67 12.36c-2.58-.07-4.59-2.24-4.59-5 0-2.78 1.97-4.86 4.59-4.92a4.85 4.85 0 014.76 4.91c0 2.4-1.68 4.95-4.76 5.02zm-99.49-6.6c-1.52-.4-2.6-.74-2.6-1.7 0-1.05 1.08-1.8 2.62-1.8 1.12.02 2.2.41 3.08 1.11l.07.06 1.56-2.17-.06-.05a7.53 7.53 0 00-4.83-1.6c-2.62 0-5.44 1.45-5.44 4.61 0 2.2 1.84 3.28 3.38 3.8.51.17 1.03.3 1.55.43 1.61.41 3 .77 3 2.03 0 .88-.88 1.8-2.52 1.8a7.09 7.09 0 01-4.26-1.57l-.07-.05-1.56 2.22.06.06a9.22 9.22 0 005.9 1.99c2.65 0 5.47-1.58 5.47-4.51 0-2.94-2.7-3.99-5.35-4.67zm65.46 1.39c0-4.42-2.86-7.5-7-7.5-4.18 0-7.2 3.16-7.2 7.5a7.8 7.8 0 002.2 5.66 6.9 6.9 0 004.87 1.95h.14c2.56-.04 4.23-.47 6.26-2.66l.06-.06-2.01-1.92-.07.07a5.32 5.32 0 01-4.14 1.86c-2.25 0-4.02-1.64-4.44-4.1l11.23-.03h.08v-.08-.4c.02-.06.02-.14.02-.29zm-10.88-1.5c.38-2.14 1.78-3.31 3.96-3.31 2.1 0 3.54 1.23 3.85 3.31h-7.81zm-62.27 1.5c0-4.42-2.88-7.5-6.99-7.5-4.17 0-7.2 3.16-7.2 7.5a7.8 7.8 0 002.2 5.66 6.9 6.9 0 004.87 1.95h.14c2.56-.04 4.23-.47 6.26-2.66l.06-.06-2.01-1.92-.07.07a5.32 5.32 0 01-4.15 1.86c-2.25 0-4.02-1.64-4.44-4.1l11.22-.03h.09v-.08-.4c.02-.06.02-.14.02-.29zm-10.89-1.5c.39-2.14 1.79-3.31 3.96-3.31 2.1 0 3.54 1.23 3.86 3.31h-7.82zm33.46 6.08c-.4.1-.82.16-1.23.15a2.4 2.4 0 01-1.8-.69c-.32-.37-.38-.94-.38-1.68v-6.98h4.13V9.3h-4.13V4.5h-2.92v4.8h-1.6v2.54h1.6v6.83c0 1.64.37 2.85 1.12 3.69 1 1.1 2.42 1.7 3.9 1.63.73 0 1.46-.1 2.16-.3l.08-.02-.85-2.65-.08.02zm73.04-18.83a1.86 1.86 0 00-1.86 1.9 1.83 1.83 0 001.86 1.85 1.86 1.86 0 001.9-1.86 1.89 1.89 0 00-1.9-1.9z"/>
  </g>
</svg>
