<svg xmlns="http://www.w3.org/2000/svg" viewBox="0 0 135 39">
  <path d="M99.8 29.16c-4.62 0-7.49-2.69-7.49-7 0-4.5 2.65-7.3 6.92-7.3h.36c.53 0 1.27.02 2.27.15V9.6h3.02v19.08s-2.87.49-5.08.49zm-.02-11.91c-2.92 0-4.34 1.58-4.34 4.83 0 2.91 1.7 4.72 4.46 4.72.53 0 1.14-.03 1.96-.1v-9.26a13.2 13.2 0 00-2.08-.2zM58.52 28.72l-8.14-14.24v14.24h-2.84V10.7h3.97l8.14 14.12V10.69h2.87v18.03zm25.93.28c-1.37 0-2.8-.15-4.5-.48l-.18-.04v-2.52l.27.06c1.5.32 2.8.6 4.09.6 1.04 0 3.48-.17 3.48-1.71 0-1.3-1.68-1.62-3.04-1.88L84.5 23l-.7-.15c-1.98-.52-4.1-1.3-4.1-3.96 0-2.6 2.06-4.1 5.64-4.1 1.72 0 2.96.2 3.97.34l.49.08v2.44l-.27-.05a21.05 21.05 0 00-3.74-.42c-1.42 0-3.11.27-3.11 1.53 0 1.06 1.38 1.36 2.98 1.7 2.24.5 5.01 1.1 5.01 4.16 0 2.8-2.26 4.42-6.2 4.42zm28.89 0c-3.12 0-6.01-.55-6.01-4.54 0-4.35 4.47-4.35 7.14-4.35l1.9.07c0-2.43-.03-3.02-3.56-3.02-1.4 0-2.95.28-4.32.53l-.26.05v-2.41l.18-.04c1.59-.32 3.12-.48 4.68-.48 3.42 0 6.31.35 6.31 4.6v9.27l-.2.02c-2.37.26-4.25.3-5.86.3zm1.05-6.74c-2.57 0-4.17.38-4.17 2.27 0 2.19 2.04 2.37 3.95 2.37.71 0 2-.1 2.39-.12v-4.45l-2.17-.07zM71.05 29c-3.13 0-6.01-.55-6.01-4.54 0-4.35 4.46-4.35 7.13-4.35l1.91.07c0-2.43-.03-3.02-3.56-3.02-1.4 0-2.95.28-4.32.53l-.26.05v-2.41l.18-.04c1.58-.32 3.11-.48 4.68-.48 3.41 0 6.31.35 6.31 4.6v9.27l-.2.02c-2.37.26-4.26.3-5.86.3zm1.05-6.74c-2.58 0-4.17.38-4.17 2.27 0 2.19 2.03 2.37 3.94 2.37.72 0 2-.1 2.4-.12v-4.45l-2.17-.07zm59.3 12.59v-5.92c-1.17.17-1.8.17-2.3.17-1.2 0-2.52-.26-3.55-.7-2.3-.95-3.67-3.39-3.67-6.5 0-1.57.38-4.42 2.92-5.95 1.27-.76 2.77-1.09 5.02-1.09.81 0 1.9.06 2.96.12l1.71.1v18.4l-3.08 1.37zm-1.8-17.6c-3.06 0-4.62 1.56-4.62 4.64 0 3.97 2.32 4.8 4.27 4.8.47 0 1 0 2.18-.15v-9.21a26.1 26.1 0 00-1.83-.09zM34.07 0L24.1 27.46a1.91 1.91 0 01-1.6 1.25v.01h10.54c.82 0 1.53-.52 1.8-1.26L44.8 0H34.07zM21.64 28.3c.6 0 1.15-.3 1.47-.76.04-.05.16-.22.24-.45l3.66-10.07-2.14-5.89a1.8 1.8 0 00-3.38.1L17.83 21.3l2.15 5.91c.28.64.92 1.1 1.66 1.1zM11.77 9.6h10.65c-.79.04-1.46.55-1.72 1.26l-9.97 27.46H0l9.97-27.46c.27-.73.97-1.26 1.8-1.26z" fill="#FFF" fill-rule="evenodd"/>
</svg>
